<svg xmlns="http://www.w3.org/2000/svg" width="18" height="18" viewBox="0 0 18 18"><rect width="18" height="18" fill="#1c0340" opacity="0"/><g transform="translate(1.73 1.73)"><path d="M260.207,256.253l-.749.836-1.027.454.564.971.114,1.117,1.1-.236,1.1.236.114-1.117.564-.971-1.027-.454Zm.382,1.991-.036.352-.346-.074-.346.074-.036-.352-.178-.306.324-.143.236-.264.236.264.324.143Z" transform="translate(-251.093 -248.977)" fill="#1c0340"/><path d="M10.633,3.906a5.425,5.425,0,1,0-6.727,6.727,5.425,5.425,0,1,0,6.727-6.727ZM2.772,5.424A2.653,2.653,0,0,1,7.6,3.905,5.447,5.447,0,0,0,3.905,7.6,2.654,2.654,0,0,1,2.772,5.424Zm-.828-.416H.872A4.551,4.551,0,0,1,1.9,2.515l.758.758a3.489,3.489,0,0,0-.715,1.736ZM5,1.945a3.489,3.489,0,0,0-1.737.723L2.5,1.911A4.551,4.551,0,0,1,5,.873V1.945Zm4.116,9.822a2.653,2.653,0,1,1,2.653-2.653A2.656,2.656,0,0,1,9.114,11.767ZM5.633,8.7H4.562A4.551,4.551,0,0,1,5.591,6.2l.758.758A3.488,3.488,0,0,0,5.633,8.7Zm5.645-2.341a3.489,3.489,0,0,0-1.737-.723V4.563A4.551,4.551,0,0,1,12.035,5.6Zm-2.59-.723a3.489,3.489,0,0,0-1.737.723L6.193,5.6A4.551,4.551,0,0,1,8.687,4.563ZM5.635,9.551a3.49,3.49,0,0,0,.722,1.727l-.757.757A4.551,4.551,0,0,1,4.564,9.551H5.635ZM6.962,11.88a3.489,3.489,0,0,0,1.725.714v1.072A4.551,4.551,0,0,1,6.2,12.637Zm2.578.714a3.489,3.489,0,0,0,1.725-.714l.758.758a4.551,4.551,0,0,1-2.483,1.028Zm2.33-1.316a3.489,3.489,0,0,0,.722-1.727h1.072a4.551,4.551,0,0,1-1.037,2.484Zm.724-2.58a3.489,3.489,0,0,0-.715-1.736l.758-.758A4.551,4.551,0,0,1,13.666,8.7ZM9.114,3.69a5.456,5.456,0,0,0-.623.036,3.5,3.5,0,0,0-.3-.454l.757-.757a4.606,4.606,0,0,1,.717,1.2A5.46,5.46,0,0,0,9.114,3.69Zm-.767-1.78-.758.758a3.505,3.505,0,0,0-1.738-.722V.873a4.513,4.513,0,0,1,2.424.978l.072.059ZM.874,5.862H1.947a3.505,3.505,0,0,0,.721,1.727l-.758.758L1.85,8.275A4.512,4.512,0,0,1,.874,5.862Zm1.64,3.087.757-.757a3.5,3.5,0,0,0,.454.3,5.439,5.439,0,0,0-.008,1.175,4.6,4.6,0,0,1-1.2-.717Z" transform="translate(0 0)" fill="#1c0340"/></g></svg>