<svg xmlns="http://www.w3.org/2000/svg" width="18" height="18" viewBox="0 0 18 18"><g transform="translate(11646 -13771)"><rect width="18" height="18" transform="translate(-11646 13771)" fill="rgba(255,255,255,0)"/><path d="M7.269,14.538a7.269,7.269,0,1,1,7.269-7.269A7.278,7.278,0,0,1,7.269,14.538Zm0-13.63A6.361,6.361,0,1,0,13.63,7.269,6.368,6.368,0,0,0,7.269.909ZM8.681,10.3a1.159,1.159,0,0,1-.538-.146l-.281-.148a1.571,1.571,0,0,0-1.186,0l-.28.148a1.161,1.161,0,0,1-.538.146.764.764,0,0,1-.6-.268.973.973,0,0,1-.177-.83l.054-.313a1.5,1.5,0,0,0-.367-1.127l-.227-.222a.931.931,0,0,1-.311-.952A.931.931,0,0,1,5.045,6l.314-.046a1.5,1.5,0,0,0,.959-.7l.141-.285a.929.929,0,0,1,.809-.589.929.929,0,0,1,.809.589l.141.284a1.5,1.5,0,0,0,.959.7L9.491,6a.93.93,0,0,1,.811.588.93.93,0,0,1-.311.952l-.227.221A1.5,1.5,0,0,0,9.4,8.891l.054.312a.974.974,0,0,1-.177.831.754.754,0,0,1-.593.269ZM7.269,8.977A2.22,2.22,0,0,1,8.285,9.2l.271.142-.052-.3a2.376,2.376,0,0,1,.628-1.933L9.35,6.9l-.3-.044A2.372,2.372,0,0,1,7.4,5.662l-.135-.274-.135.274A2.372,2.372,0,0,1,5.491,6.856l-.3.044.219.214a2.373,2.373,0,0,1,.628,1.932l-.052.3.27-.142a2.224,2.224,0,0,1,1.016-.227Z" transform="translate(-11644.27 13772.73)" fill="#fff"/></g></svg>