<?xml version="1.0" standalone="no"?>
<!DOCTYPE svg PUBLIC "-//W3C//DTD SVG 20010904//EN"
 "http://www.w3.org/TR/2001/REC-SVG-20010904/DTD/svg10.dtd">
<svg version="1.0" xmlns="http://www.w3.org/2000/svg"
 width="700.000000pt" height="700.000000pt" viewBox="0 0 700.000000 700.000000"
 preserveAspectRatio="xMidYMid meet">
<metadata>
Created by potrace 1.14, written by Peter Selinger 2001-2017
</metadata>
<g transform="translate(0.000000,700.000000) scale(0.100000,-0.100000)"
fill="#000000" stroke="none">
<path d="M3387 6124 c-1 -1 -43 -5 -93 -8 -50 -4 -100 -8 -111 -10 -11 -3 -44
-7 -74 -11 -48 -6 -89 -13 -169 -31 -245 -53 -491 -145 -709 -266 -504 -280
-906 -721 -1136 -1245 -46 -105 -128 -342 -138 -398 -3 -16 -8 -39 -11 -50
-19 -78 -37 -175 -51 -275 -23 -160 -23 -535 1 -670 2 -14 7 -43 10 -65 27
-192 102 -447 191 -651 66 -152 200 -385 280 -489 13 -16 27 -34 31 -40 128
-168 296 -339 460 -468 111 -88 146 -113 286 -201 63 -40 324 -169 366 -181
14 -4 39 -13 55 -21 102 -45 360 -113 530 -139 241 -36 515 -38 755 -5 91 13
145 22 147 24 1 1 -7 21 -18 44 -16 31 -21 62 -22 124 -2 142 7 173 102 368
113 232 141 373 93 472 -18 37 -39 56 -103 99 -90 59 -153 123 -187 193 -13
26 -54 84 -91 129 -91 110 -98 127 -96 217 2 106 32 183 118 309 25 36 31 56
33 104 1 53 -1 63 -25 85 -14 13 -45 33 -69 44 l-43 21 -22 -21 c-34 -31 -57
-31 -124 4 -118 62 -156 93 -202 164 -46 72 -53 77 -110 86 -38 6 -66 15 -291
100 -369 140 -416 175 -436 322 -8 60 -23 88 -101 190 -69 92 -84 117 -103
177 -7 22 -17 45 -22 50 -18 17 -1 -62 37 -179 39 -122 38 -116 26 -116 -8 0
-46 50 -103 138 -11 16 -17 45 -17 77 0 58 -20 121 -85 260 -93 198 -93 293 1
514 24 57 46 125 49 150 5 56 26 81 53 64 18 -11 18 -10 6 31 -8 27 -13 99
-13 189 0 173 -9 200 -62 205 -53 5 -110 -13 -242 -79 l-58 -29 11 24 c16 35
110 108 296 229 221 145 215 142 303 141 62 0 91 -7 167 -37 170 -68 256 -80
204 -28 -43 43 -17 65 74 63 67 -1 95 -13 165 -68 77 -61 138 -82 218 -77 65
5 80 -7 45 -32 -10 -8 -17 -27 -18 -46 0 -30 -6 -36 -62 -68 -92 -54 -128 -84
-120 -104 4 -10 27 -29 53 -45 26 -15 91 -55 144 -90 54 -34 112 -67 129 -72
27 -8 33 -6 48 16 12 19 14 40 10 97 -4 39 -10 86 -14 102 -25 94 19 109 143
50 65 -31 81 -35 124 -29 39 5 58 2 97 -17 44 -21 276 -190 288 -209 3 -5 -12
-18 -32 -31 -144 -86 -159 -138 -50 -182 47 -20 49 -47 5 -80 -54 -40 -79 -50
-91 -38 -19 19 -51 12 -83 -18 -37 -34 -47 -57 -34 -80 8 -16 3 -21 -33 -35
-96 -38 -120 -83 -122 -223 l0 -103 -71 -72 c-118 -121 -121 -130 -78 -248 26
-72 28 -110 7 -117 -6 -2 -42 23 -79 57 -69 63 -115 91 -169 105 -174 42 -392
-37 -471 -171 -38 -65 -38 -147 -1 -228 37 -79 81 -116 140 -116 28 0 114 44
190 98 57 40 66 42 100 27 23 -10 22 -63 -2 -132 l-18 -53 54 -15 c99 -29 163
-115 163 -220 0 -45 40 -116 79 -143 51 -33 133 -54 220 -55 84 -1 101 6 260
120 108 77 191 97 301 72 25 -5 108 -41 185 -79 92 -46 185 -83 274 -109 145
-43 185 -68 196 -125 4 -17 13 -54 21 -83 17 -62 38 -72 164 -79 145 -8 233
-23 285 -49 59 -28 79 -56 77 -106 -5 -124 -160 -434 -326 -654 -72 -95 -93
-117 -166 -172 -30 -23 -73 -65 -95 -94 -22 -28 -44 -56 -50 -63 -5 -6 -23
-29 -39 -51 -16 -22 -49 -59 -72 -81 -46 -46 -280 -224 -294 -224 -4 0 -10 -3
-12 -7 -4 -11 -46 -39 -153 -106 -49 -30 -106 -73 -127 -94 -51 -54 -163 -236
-141 -229 10 3 45 12 78 20 160 41 310 97 490 186 168 82 249 132 416 256 350
262 641 628 822 1039 45 100 106 271 127 355 7 25 14 52 16 60 13 48 54 261
58 304 25 233 25 545 0 671 -2 11 -7 40 -10 65 -15 116 -58 292 -111 450 -155
470 -480 922 -883 1231 -302 232 -655 397 -1020 479 -129 29 -212 41 -365 56
-67 6 -323 13 -328 8z m360 -89 c38 -8 112 -24 167 -35 54 -11 117 -29 140
-39 84 -37 146 -112 146 -178 0 -15 20 -68 44 -117 25 -49 42 -94 40 -101 -10
-26 -49 -25 -112 5 -64 30 -212 125 -251 161 -82 76 -200 135 -294 144 -82 9
-92 13 -106 38 -16 30 -4 57 42 96 49 42 87 47 184 26z m-263 -21 c41 -16 5
-99 -56 -130 -41 -21 -127 -34 -156 -23 l-24 9 26 31 c14 17 26 39 26 50 0 38
131 83 184 63z m43 -240 c38 -10 169 -81 216 -117 30 -23 37 -35 37 -62 0 -54
-22 -68 -99 -61 -88 8 -134 16 -143 25 -5 4 1 24 12 45 33 66 7 91 -117 113
-115 20 -171 49 -130 67 15 7 186 -1 224 -10z m147 -1939 c33 -9 115 -44 183
-80 l124 -64 41 15 c49 17 75 18 117 3 43 -15 35 -29 -30 -52 -106 -37 -174
-27 -299 41 -70 39 -145 68 -195 77 -22 4 -47 8 -55 10 -8 2 -25 4 -37 4 -34
1 -30 37 5 49 40 15 80 14 146 -3z"/>
</g>
</svg>
